<svg xmlns="http://www.w3.org/2000/svg" xml:space="preserve" version="1.1" style="shape-rendering:geometricPrecision;text-rendering:geometricPrecision;image-rendering:optimizeQuality;" viewBox="0 0 266 231.25" x="0px" y="0px" fill-rule="evenodd" clip-rule="evenodd"><defs><style type="text/css">

    .fil0 {fill:#007AC3}
    .fil1 {fill:#007AC3;fill-rule:nonzero}

  </style></defs><g><path class="fil0" d="M130 94l-5 12 137 48c8,3 3,15 -5,12l-136 -47 -4 12c3,2 5,5 4,8l-2 6c-1,3 -5,4 -9,2l-30 -10c-4,-1 -6,-5 -5,-8l2 -6c1,-4 7,-4 10,-2l13 -37c-3,-1 -8,-4 -6,-9l2 -6c1,-3 5,-4 9,-3l30 11c4,1 6,5 5,8l-2 6c-1,3 -5,4 -8,3z"/><rect class="fil0" x="62" y="165" width="61.6519" height="9.45389"/><rect class="fil0" x="54" y="176" width="79.2712" height="9.45389"/><path class="fil1" d="M188 103c-5,1 -5,-6 -1,-6l30 -3c4,0 5,6 1,6l-30 3z"/><path class="fil1" d="M174 65c-4,3 -7,-2 -4,-5l25 -17c3,-3 7,3 3,5l-24 17z"/><path class="fil1" d="M143 40c-2,4 -8,1 -6,-3l13 -27c1,-4 7,-1 5,2l-12 28z"/><path class="fil1" d="M103 33c1,4 -6,5 -6,0l-3 -30c0,-4 6,-4 7,0l2 30z"/><path class="fil1" d="M66 46c2,4 -3,8 -6,4l-17 -24c-3,-4 3,-7 5,-4l18 24z"/><path class="fil1" d="M40 77c4,2 1,8 -3,6l-27 -12c-4,-2 -1,-8 2,-6l28 12z"/><path class="fil1" d="M33 117c4,0 5,6 0,6l-29 3c-5,1 -5,-6 -1,-6l30 -3z"/></g></svg>
