<svg xmlns="http://www.w3.org/2000/svg" version="1.1" style="shape-rendering:geometricPrecision;text-rendering:geometricPrecision;image-rendering:optimizeQuality;" viewBox="0 0 847 1058.75" x="0px" y="0px" fill-rule="evenodd" clip-rule="evenodd"><g><path d="M423 10c228,0 413,185 413,413 0,228 -185,413 -413,413 -228,0 -413,-185 -413,-413 0,-228 185,-413 413,-413zm254 256c-14,-15 -28,-29 -43,-43 -9,-10 -25,-10 -35,0 -88,87 -175,174 -262,262 -30,-30 -59,-60 -89,-89 -10,-10 -26,-10 -36,0 -14,14 -28,28 -43,43 -9,10 -9,26 0,35 50,50 100,100 150,150 10,10 26,10 36,0 107,-108 215,-215 322,-323 10,-10 10,-26 0,-35z"/></g></svg>
