<svg xmlns="http://www.w3.org/2000/svg" version="1.1" x="0px" y="0px" viewBox="0 0 283.46 354.325" style="enable-background:new 0 0 283.46 283.46;" xml:space="preserve"><path d="M210.806,231.894c-1.661,0-3.329-0.331-4.91-1.002l-0.528-0.225l-0.472-0.328l-39.634-27.678  c-0.083-0.014-0.167-0.021-0.252-0.021H82.528c-31.184,0-56.554-25.37-56.554-56.555v-37.97c0-31.184,25.37-56.554,56.554-56.554  h123.184c31.184,0,56.554,25.37,56.554,56.554v45.024c0,22.854-15.531,42.622-37.77,48.075c-0.672,0.165-1.141,0.778-1.141,1.491  v16.629c0,4.224-2.103,8.138-5.625,10.469C215.64,231.189,213.231,231.894,210.806,231.894z M210.556,220.874  c0.499,0.091,0.892-0.103,1.103-0.242c0.26-0.172,0.696-0.569,0.696-1.296v-16.629c0-5.793,3.915-10.8,9.521-12.175  c17.305-4.243,29.39-19.619,29.39-37.392v-45.024c0-25.118-20.436-45.554-45.554-45.554H82.528  c-25.118,0-45.554,20.436-45.554,45.554v37.97c0,25.119,20.436,45.555,45.554,45.555h82.482c1.694,0,3.345,0.336,4.904,0.998  l0.529,0.225l0.472,0.328L210.556,220.874z"/><g><path d="M89.992,106.551l5.333,10.806c0.324,0.657,0.951,1.113,1.676,1.218l11.925,1.733c1.826,0.265,2.555,2.51,1.234,3.798   l-8.629,8.411c-0.525,0.512-0.764,1.248-0.64,1.971l2.037,11.877c0.312,1.819-1.597,3.206-3.231,2.347l-10.666-5.607   c-0.649-0.341-1.424-0.341-2.072,0l-10.666,5.607c-1.633,0.859-3.542-0.528-3.231-2.347l2.037-11.877   c0.124-0.722-0.116-1.459-0.64-1.971l-8.629-8.411c-1.321-1.288-0.592-3.532,1.234-3.798l11.925-1.733   c0.725-0.105,1.352-0.561,1.676-1.218l5.333-10.806C86.815,104.897,89.175,104.897,89.992,106.551z"/><path d="M146.116,106.551l5.333,10.806c0.324,0.657,0.951,1.113,1.676,1.218l11.925,1.733c1.826,0.265,2.555,2.51,1.234,3.798   l-8.629,8.411c-0.525,0.512-0.764,1.248-0.64,1.971l2.037,11.877c0.312,1.819-1.597,3.206-3.23,2.347l-10.666-5.607   c-0.649-0.341-1.424-0.341-2.072,0l-10.666,5.607c-1.633,0.859-3.542-0.528-3.23-2.347l2.037-11.877   c0.124-0.722-0.116-1.459-0.64-1.971l-8.629-8.411c-1.321-1.288-0.592-3.532,1.234-3.798l11.925-1.733   c0.725-0.105,1.352-0.561,1.676-1.218l5.333-10.806C142.94,104.897,145.299,104.897,146.116,106.551z"/><path d="M202.24,106.551l5.333,10.806c0.324,0.657,0.951,1.113,1.676,1.218l11.925,1.733c1.826,0.265,2.555,2.51,1.234,3.798   l-8.629,8.411c-0.525,0.512-0.764,1.248-0.64,1.971l2.037,11.877c0.312,1.819-1.597,3.206-3.231,2.347l-10.666-5.607   c-0.649-0.341-1.424-0.341-2.072,0l-10.666,5.607c-1.633,0.859-3.542-0.528-3.23-2.347l2.037-11.877   c0.124-0.722-0.116-1.459-0.64-1.971l-8.629-8.411c-1.321-1.288-0.592-3.532,1.234-3.798l11.925-1.733   c0.725-0.105,1.352-0.561,1.676-1.218l5.333-10.806C199.064,104.897,201.424,104.897,202.24,106.551z"/></g></svg>
