<svg xmlns="http://www.w3.org/2000/svg" viewBox="0 0 26.458333 33.0729175" version="1.1" x="0px" y="0px"><g transform="translate(0,-270.54165)"><path style="color:#000000;font-style:normal;font-variant:normal;font-weight:normal;font-stretch:normal;font-size:medium;line-height:normal;font-family:sans-serif;font-variant-ligatures:normal;font-variant-position:normal;font-variant-caps:normal;font-variant-numeric:normal;font-variant-alternates:normal;font-feature-settings:normal;text-indent:0;text-align:start;text-decoration:none;text-decoration-line:none;text-decoration-style:solid;text-decoration-color:#000000;letter-spacing:normal;word-spacing:normal;text-transform:none;writing-mode:lr-tb;direction:ltr;text-orientation:mixed;dominant-baseline:auto;baseline-shift:baseline;text-anchor:start;white-space:normal;shape-padding:0;clip-rule:nonzero;display:inline;overflow:visible;visibility:visible;opacity:1;isolation:auto;mix-blend-mode:normal;color-interpolation:sRGB;color-interpolation-filters:linearRGB;solid-color:#000000;solid-opacity:1;vector-effect:none;fill:#000000;fill-opacity:1;fill-rule:nonzero;stroke:none;stroke-width:0.5291667;stroke-linecap:round;stroke-linejoin:round;stroke-miterlimit:4;stroke-dasharray:none;stroke-dashoffset:0;stroke-opacity:1;marker:none;color-rendering:auto;image-rendering:auto;shape-rendering:auto;text-rendering:auto;enable-background:accumulate" d="m 8.8446181,272.12924 a 0.28325995,0.28060263 0 0 0 -0.030979,0.001 0.28325995,0.28060263 0 0 0 -0.2218279,0.14084 l -0.4137838,0.69381 H 3.4593452 a 0.28325995,0.28060263 0 0 0 -0.284338,0.28168 v 5.04979 a 0.28325995,0.28060263 0 0 0 0.284338,0.28168 h 5.0970625 a 0.28325995,0.28060263 0 0 0 0.284338,-0.28163 v -5.0498 a 0.28325995,0.28060263 0 0 0 -0.06583,-0.18083 l 0.3042527,-0.50909 a 0.28325995,0.28060263 0 0 0 -0.2345503,-0.42745 z m -5.1031476,1.39685 H 7.842797 l -1.5754759,2.6408 -1.1899047,-1.15134 a 0.28325995,0.28060263 0 1 0 -0.3949755,0.39949 l 1.4465833,1.40233 a 0.28325995,0.28060263 0 0 0 0.4414431,-0.0581 l 1.7038151,-2.85397 v 4.11108 H 3.7414705 Z m 7.9387825,0.5617 a 0.28329762,0.28063995 0 0 0 0,0.56115 h 11.313222 a 0.28329762,0.28063995 0 1 0 0,-0.56115 z m -0.02711,2.8063 a 0.28362875,0.28096797 0 0 0 0.02711,0.56114 h 11.313222 a 0.28330297,0.28064525 0 1 0 0,-0.56114 H 11.680253 a 0.28325995,0.28060263 0 0 0 -0.02711,0 z m -8.1938025,4.48809 a 0.28325995,0.28060263 0 0 0 -0.284338,0.28167 v 5.0498 a 0.28325995,0.28060263 0 0 0 0.284338,0.28166 h 5.097063 a 0.28325995,0.28060263 0 0 0 0.2843379,-0.28166 v -5.0498 a 0.28325995,0.28060263 0 0 0 -0.2843379,-0.28167 z m 0.2821253,0.56115 h 4.5328119 v 4.49029 h -4.532812 z m 7.9387832,0.5617 a 0.28329762,0.28063995 0 0 0 0,0.56115 h 11.313226 a 0.28329762,0.28063995 0 1 0 0,-0.56115 z m -0.02711,2.80629 a 0.28362875,0.28096797 0 0 0 0.02711,0.56115 h 11.313226 a 0.28330297,0.28064525 0 1 0 0,-0.56115 H 11.680253 a 0.28325995,0.28060263 0 0 0 -0.0271,0 z m -2.8085296,3.6524 a 0.28325995,0.28060263 0 0 0 -0.030979,10e-4 0.28325995,0.28060263 0 0 0 -0.221828,0.14084 l -0.4137837,0.69377 h -4.718683 a 0.28325995,0.28060263 0 0 0 -0.284338,0.28167 v 5.04978 a 0.28325995,0.28060263 0 0 0 0.284338,0.28168 h 5.0970626 a 0.28325995,0.28060263 0 0 0 0.2843379,-0.28164 v -5.04979 a 0.28325995,0.28060263 0 0 0 -0.06583,-0.18084 L 9.079159,289.3911 a 0.28325995,0.28060263 0 0 0 -0.2345496,-0.42738 z m -5.1031484,1.39684 h 4.1013262 l -1.5754759,2.64081 -1.1899047,-1.15135 a 0.28325995,0.28060263 0 1 0 -0.3949755,0.40168 l 1.4465834,1.40014 a 0.28325995,0.28060263 0 0 0 0.441443,-0.0581 l 1.7038155,-2.85396 v 4.11108 H 3.7414705 Z m 7.938783,0.56171 a 0.28329762,0.28063995 0 0 0 0,0.56114 h 11.313231 a 0.28329762,0.28063995 0 1 0 0,-0.56114 z m -0.02711,2.80629 a 0.28362875,0.28096797 0 0 0 0.02711,0.56114 h 11.313231 a 0.28330297,0.28064525 0 1 0 0,-0.56114 H 11.680253 a 0.28325995,0.28060263 0 0 0 -0.0271,0 z"/></g></svg>
